HIERARCHY
ROOT Hips
{
	OFFSET 0.000000 0.000000 0.000000 
	CHANNELS 6 Xposition Yposition Zposition Yrotation Zrotation Xrotation 
	JOINT Lumbar
	{
		OFFSET 0.000000 0.000000 0.000000 
		CHANNELS 3 Zrotation Xrotation Yrotation
		JOINT Neck
		{
			OFFSET 0.000000 0.445665 0.000000 
			CHANNELS 3 Zrotation Xrotation Yrotation
			End Site
			{
				OFFSET 0.000000 0.227535 0.000000 
			}
		}
		JOINT RightShoulder
		{
			OFFSET 0.019635 0.377685 0.194865 
			CHANNELS 3 Zrotation Xrotation Yrotation
			JOINT RightElbow
			{
				OFFSET 0.000000 -0.243375 0.000000 
				CHANNELS 2 Zrotation Yrotation
				JOINT RightWrist
				{
					OFFSET 0.000000 -0.264825 0.000000 
					CHANNELS 2 Zrotation Xrotation
					End Site
					{
						OFFSET 0.006600 -0.176220 0.000990 
					}
				}
			}
		}
		JOINT LeftShoulder
		{
			OFFSET 0.019635 0.377685 -0.194865 
			CHANNELS 3 Zrotation Xrotation Yrotation
			JOINT LeftElbow
			{
				OFFSET 0.000000 -0.243375 0.000000 
				CHANNELS 2 Zrotation Yrotation
				JOINT LeftWrist
				{
					OFFSET 0.000000 -0.264825 0.000000 
					CHANNELS 2 Zrotation Xrotation
					End Site
					{
						OFFSET 0.006600 -0.176220 -0.000990 
					}
				}
			}
		}
	}
	JOINT RightHip
	{
		OFFSET 0.052140 -0.069960 0.075570 
		CHANNELS 3 Zrotation Xrotation Yrotation
		JOINT RightKnee
		{
			OFFSET 0.000000 -0.402270 0.000000 
			CHANNELS 1 Zrotation
			JOINT RightAnkle
			{
				OFFSET 0.000000 -0.404085 0.000000 
				CHANNELS 3 Zrotation Xrotation Yrotation
				End Site
				{
					OFFSET 0.204105 -0.089430 0.008415 
				}
			}
		}
	}
	JOINT LeftHip
	{
		OFFSET 0.052140 -0.069960 -0.075570 
		CHANNELS 3 Zrotation Xrotation Yrotation
		JOINT LeftKnee
		{
			OFFSET 0.000000 -0.402270 0.000000 
			CHANNELS 1 Zrotation
			JOINT LeftAnkle
			{
				OFFSET 0.000000 -0.404085 0.000000 
				CHANNELS 3 Zrotation Xrotation Yrotation
				End Site
				{
					OFFSET 0.204105 -0.089430 -0.008415 
				}
			}
		}
	}
}
MOTION
Frames: 25
Frame Time: 0.02
0.26822 0.03228 0.45977 75.0545 -28.34865 -14.23501 47.23176 -2.24045 0.34521 -7.88932 12.48093 -2.11994 33.5174 -21.66422 -7.67029 124.59176 54.0259 -48.36327 -0.1775 17.49921 19.66021 4.888 111.92103 -74.06183 -34.00942 2.05377 48.54544 -2.48301 -2.47738 -63.93622 -7.49671 -2.94817 -3.71208 44.91241 4.88878 11.40372 -29.26513 -6.86436 0.85184 2.70049
0.27112 0.03376 0.44975 75.64973 -28.59274 -14.65386 46.88507 -2.08788 -0.3278 -8.17402 12.98008 -2.11994 33.51994 -22.03207 -7.97167 125.23246 54.76639 -47.75141 -0.24701 16.57904 19.44538 6.71196 113.27861 -73.3466 -33.46368 1.93481 50.23469 -2.93461 -2.66573 -61.37844 -7.52562 -2.88997 -3.68484 44.33479 5.27002 10.9149 -29.20143 -6.82249 0.81578 2.67797
0.2743 0.03507 0.43985 76.23582 -28.95177 -15.04935 46.58473 -1.93594 -1.01519 -8.32673 13.48337 -2.11994 33.57869 -22.44748 -8.37847 125.89065 56.07335 -47.07946 -0.38123 15.42655 19.57574 8.93637 114.77108 -73.04191 -32.43761 1.86778 51.78402 -3.64936 -3.1066 -57.83167 -7.58275 -2.75248 -3.62042 43.93287 5.56347 10.00157 -29.17781 -6.77416 0.82917 2.67639
0.27741 0.03643 0.42985 76.82058 -29.26167 -15.44943 46.27303 -1.78432 -1.68708 -8.535 13.97435 -2.11994 33.58372 -22.78546 -8.70478 126.52724 57.12243 -46.46018 -0.48673 14.38082 19.48792 10.96618 116.1811 -72.56552 -31.71452 1.78162 53.37196 -4.22237 -3.37766 -54.69158 -7.63172 -2.64456 -3.56996 43.44993 5.90555 9.31649 -29.13401 -6.73028 0.81686 2.66402
0.2803 0.03789 0.42008 77.42498 -29.56466 -15.87886 45.92167 -1.62714 -2.40012 -8.76378 14.51182 -2.11994 33.70986 -23.36324 -9.16774 127.2313 58.18693 -45.72239 -0.59109 13.32117 19.66199 13.07368 117.69391 -72.01607 -30.65241 1.67538 55.07565 -4.88327 -3.86744 -51.68386 -7.66042 -2.56442 -3.53206 42.98169 6.21823 8.49604 -29.10034 -6.68155 0.81626 2.65622
0.28371 0.03912 0.40983 77.98907 -29.90558 -16.24015 45.6633 -1.48325 -3.02947 -8.91769 14.95254 -2.11994 33.59319 -23.45592 -9.37205 127.78928 59.33562 -45.21307 -0.71034 12.23848 19.37596 15.08989 119.01335 -71.70983 -30.16863 1.62216 56.49965 -5.42489 -3.97346 -48.2014 -7.73762 -2.40839 -3.45956 42.51926 6.56865 7.84696 -29.05435 -6.64072 0.80408 2.64435
0.28831 0.03978 0.39831 78.42651 -30.34083 -16.41907 45.65248 -1.3709 -3.4261 -8.89832 15.12431 -2.11994 32.83206 -22.14189 -8.82956 128.01597 60.75432 -45.44574 -0.8822 11.15444 17.67942 16.94739 119.84509 -72.1 -31.48047 1.72162 57.20222 -5.5832 -2.87729 -43.43546 -7.94981 -2.04985 -3.29493 42.0508 7.04249 7.8296 -28.9659 -6.62416 0.74367 2.61421
0.29343 0.04022 0.38627 78.82713 -30.80682 -16.53007 45.73342 -1.27308 -3.73759 -8.80776 15.19836 -2.11994 31.8189 -20.34887 -8.02501 128.08268 62.21624 -45.88953 -1.06204 10.05686 15.51801 18.66533 120.4646 -72.69818 -33.37368 1.86893 57.62353 -5.61113 -1.40262 -38.26975 -8.20834 -1.61987 -3.09778 41.5783 7.557 7.98757 -28.86381 -6.61542 0.67093 2.57972
0.2984 0.04076 0.37438 79.25659 -31.24581 -16.67103 45.77041 -1.17238 -4.08588 -8.74874 15.31726 -2.11994 30.89334 -18.80788 -7.34416 128.16919 63.52942 -46.18396 -1.22014 8.96153 13.6036 20.31705 121.12488 -73.12514 -34.9466 1.98313 58.16179 -5.69318 -0.15447 -33.43209 -8.44089 -1.23025 -2.91907 41.09125 8.05291 8.02863 -28.766 -6.6023 0.60672 2.54855
0.30302 0.04129 0.36286 79.63514 -31.74181 -16.81336 45.81721 -1.0564 -4.4411 -8.68835 15.43441 -2.11994 30.07726 -17.11616 -6.64513 128.47022 65.36328 -46.72564 -1.45606 7.86894 11.54695 22.51846 122.01377 -73.89945 -36.74186 2.14961 58.7423 -5.80704 1.31703 -27.9424 -8.69602 -0.804 -2.72338 40.67468 8.54511 8.2136 -28.67507 -6.5924 0.53165 2.51236
0.30848 0.04181 0.35046 80.11043 -32.1275 -16.93916 45.8664 -0.97511 -4.76346 -8.61587 15.53204 -2.11994 28.9803 -15.63343 -5.9234 128.29814 66.17085 -46.77295 -1.53208 6.77732 9.6761 23.55131 122.38848 -73.98227 -38.21563 2.21471 59.16846 -5.81891 2.41406 -23.72763 -8.91374 -0.43884 -2.55612 40.11429 9.05741 8.14425 -28.56937 -6.57783 0.47588 2.48543
0.31611 0.04225 0.33574 80.86848 -32.17659 -17.01642 45.88458 -0.99147 -4.99774 -8.52613 15.59846 -2.11994 27.10544 -14.76358 -5.17829 126.75545 63.63497 -45.68199 -1.15476 5.63748 8.39558 21.26219 121.27099 -72.22064 -38.68359 2.01754 59.24697 -5.5916 2.40672 -23.14713 -9.02561 -0.25393 -2.47292 39.10407 9.6006 7.34659 -28.40055 -6.54777 0.47419 2.4841
0.32454 0.0427 0.32017 81.7245 -32.117 -17.0826 45.90388 -1.04126 -5.20449 -8.42769 15.64874 -2.11994 24.97005 -14.13547 -4.4247 124.76112 60.13992 -44.04713 -0.61803 4.51229 7.32557 17.82431 119.66486 -69.74182 -38.8056 1.71272 59.17742 -5.26295 2.00733 -23.86437 -9.09653 -0.13451 -2.42012 37.95922 10.16503 6.28649 -28.22408 -6.51308 0.49249 2.49231
0.3326 0.04318 0.30501 82.53071 -32.12334 -17.16741 45.93332 -1.0722 -5.43657 -8.33458 15.70726 -2.11994 22.99335 -13.44986 -3.6892 123.04154 57.42756 -42.46304 -0.16007 3.41473 6.17826 14.99469 118.36454 -67.50126 -39.07279 1.43536 59.17156 -4.97238 1.77307 -23.98366 -9.18023 0.01063 -2.35516 36.90921 10.73072 5.33687 -28.06498 -6.48076 0.50291 2.49673
0.34073 0.04349 0.28971 83.35582 -32.06339 -17.19461 45.92402 -1.11903 -5.61447 -8.23263 15.75882 -2.11994 20.83048 -12.52669 -2.87952 121.02395 53.31516 -41.66391 0.32539 2.16398 4.92745 11.79515 116.70748 -65.59926 -39.41164 1.24293 59.17628 -4.71077 1.60368 -24.12789 -9.28991 0.17549 -2.28199 35.7136 11.25478 4.42782 -27.83789 -6.44686 0.50799 2.49875
0.34887 0.04418 0.27454 84.16796 -32.11232 -17.33734 45.99071 -1.14061 -5.89614 -8.14853 15.82197 -2.11994 19.00595 -12.16173 -2.23199 119.52066 51.81246 -39.16261 0.79015 1.24576 3.96072 9.09678 115.67495 -62.86804 -39.51053 0.85664 59.12084 -4.36684 1.20522 -24.52741 -9.33551 0.28262 -2.23367 34.7937 11.86623 3.37269 -27.76189 -6.41599 0.5289 2.50804
0.35692 0.04588 0.25976 84.89765 -32.51387 -17.82533 46.29879 -1.08311 -6.5019 -8.1122 15.9246 -2.11994 18.09869 -13.28298 -1.98222 119.55924 58.42472 -31.53577 1.17098 1.15685 3.61984 8.04969 116.53186 -57.59274 -39.03978 -0.11926 58.9944 -3.81764 0.23348 -25.37322 -9.21082 0.24736 -2.24601 34.63109 12.74596 1.95444 -28.00926 -6.38633 0.59066 2.53569
0.36492 0.04798 0.24519 85.61521 -33.02396 -18.42579 46.67698 -0.99908 -7.20704 -8.09549 16.03931 -2.11994 17.55457 -14.95863 -1.90704 120.12933 67.57406 -22.31666 1.52338 1.41626 3.57837 7.55033 118.02632 -51.58168 -38.33647 -1.27262 58.80349 -3.19051 -0.95036 -26.42284 -9.02349 0.15572 -2.28258 34.75794 13.70618 0.40333 -28.42628 -6.36121 0.66758 2.57035
0.37287 0.04993 0.23063 86.35349 -33.46745 -18.95982 47.0016 -0.92806 -7.8478 -8.07222 16.14663 -2.11994 16.90181 -16.38114 -1.78727 120.44997 75.11483 -14.1931 1.88065 1.57464 3.47431 6.80922 119.2007 -46.19476 -37.72947 -2.29098 58.60424 -2.60116 -2.01488 -27.34203 -8.86675 0.08884 -2.30861 34.77599 14.60895 -1.07395 -28.8292 -6.33967 0.73597 2.60129
0.38114 0.05173 0.21557 87.03138 -33.97966 -19.55856 47.4176 -0.8547 -8.5715 -8.03748 16.26125 -2.11994 16.01277 -17.81961 -1.51994 120.78957 84.53017 -4.48531 2.2769 1.49942 3.07335 5.99561 120.48766 -39.58073 -37.14451 -3.5389 58.55636 -1.9971 -3.18941 -28.46365 -8.69945 0.02326 -2.33374 34.69156 15.6028 -2.62305 -28.9683 -6.29493 0.81094 2.63433
0.38872 0.05394 0.20163 87.83039 -34.37648 -20.04878 47.66035 -0.77884 -9.14289 -8.03291 16.36388 -2.11994 15.6917 -19.34988 -1.60199 121.21998 90.67533 2.29991 2.58384 1.98364 3.35131 5.48063 121.69583 -35.33064 -36.47018 -4.35399 58.1826 -1.40793 -4.1804 -29.19792 -8.54004 -0.05747 -2.36606 34.89328 16.42302 -4.04319 -29.69424 -6.29866 0.87686 2.66512
0.3945 0.05725 0.19061 88.97069 -34.42397 -20.21681 47.40354 -0.70793 -9.30022 -8.09392 16.42952 -2.11994 16.96864 -21.02499 -2.60112 121.78929 87.01555 0.57571 2.64357 4.00549 5.49666 5.64038 122.55103 -38.02271 -35.54285 -3.89031 56.9024 -0.86802 -4.60985 -28.7837 -8.41594 -0.16699 -2.41252 35.79569 16.76743 -5.1367 -32.02193 -6.44377 0.9023 2.68265
0.39957 0.06095 0.18073 90.23205 -34.35304 -20.2707 46.97078 -0.63435 -9.29553 -8.18693 16.48296 -2.11994 18.78241 -22.76504 -3.94534 122.4305 80.01712 -4.13299 2.61448 6.56012 8.30002 6.09038 123.30349 -43.08018 -34.54641 -2.99171 55.30167 -0.34867 -4.84648 -27.97177 -8.30247 -0.28931 -2.46518 36.97972 16.93003 -6.08201 -34.92728 -6.636 0.91986 2.69845
0.40491 0.06443 0.1704 91.43497 -34.33946 -20.37381 46.6211 -0.55819 -9.34459 -8.27399 16.54264 -2.11994 20.27584 -24.45917 -5.1368 123.02919 74.64499 -7.45198 2.63091 8.82412 10.75988 6.42391 124.09208 -46.90311 -33.62547 -2.31822 53.86282 0.17278 -5.17054 -27.35419 -8.18556 -0.40503 -2.51477 38.04838 17.16021 -7.05444 -37.55685 -6.8009 0.94907 2.71866
0.41048 0.0681 0.15979 92.65209 -34.3142 -20.49268 46.26041 -0.49674 -9.47988 -8.32604 16.59965 -2.11994 22.11011 -26.25069 -6.32331 123.68785 68.87426 -10.87705 2.62694 11.31976 13.42452 6.71127 124.94751 -51.36884 -32.51267 -1.5357 52.35216 0.72887 -5.5006 -26.68625 -8.06066 -0.52626 -2.56642 39.07593 17.45597 -8.20547 -40.26 -6.99059 0.94614 2.72445
